<svg xmlns="http://www.w3.org/2000/svg" width="154" height="29" viewBox="0 0 154 29">
    <g fill="#61687C" fill-rule="nonzero">
        <path d="M145.824 24.866c0-2.264 1.83-4.102 4.081-4.102 2.253 0 4.08 1.838 4.08 4.102 0 2.265-1.827 4.1-4.08 4.1-2.252 0-4.08-1.835-4.08-4.1M15.677 14.004c0-2.598-.5-4.526-1.498-5.781-1-1.255-2.515-1.881-4.552-1.881H7.46v15.886h1.658c2.262 0 3.92-.674 4.976-2.027 1.054-1.35 1.583-3.416 1.583-6.197m7.728-.27c0 4.732-1.266 8.38-3.798 10.94-2.532 2.56-6.09 3.841-10.678 3.841H.015V.154h9.536c4.424 0 7.838 1.164 10.245 3.491 2.405 2.329 3.609 5.69 3.609 10.088M48.096 28.515h7.093V.035h-7.093zM65.154 17.891c0 1.816.236 3.201.707 4.153.473.953 1.264 1.43 2.376 1.43 1.1 0 1.879-.477 2.332-1.43.454-.952.68-2.337.68-4.153 0-1.806-.23-3.168-.69-4.088-.46-.922-1.245-1.384-2.359-1.384-1.088 0-1.866.46-2.339 1.373-.47.915-.707 2.281-.707 4.1m13.314 0c0 3.459-.903 6.158-2.712 8.092-1.807 1.936-4.338 2.905-7.591 2.905-3.12 0-5.603-.99-7.446-2.97-1.846-1.98-2.768-4.655-2.768-8.028 0-3.448.903-6.128 2.712-8.04 1.81-1.91 4.346-2.865 7.612-2.865 2.018 0 3.803.442 5.35 1.327 1.548.884 2.743 2.15 3.583 3.8.84 1.647 1.26 3.575 1.26 5.778M81.285 28.515h7.094V7.36h-7.094zM81.284 4.8h7.095V.034h-7.095zM102.751 23.119c.958 0 2.099-.245 3.43-.73v5.323c-.957.422-1.866.725-2.73.904-.865.182-1.88.272-3.04.272-2.382 0-4.098-.602-5.153-1.803-1.05-1.2-1.576-3.045-1.576-5.534v-8.72h-2.485V7.36h2.485V1.96L100.83.71v6.653h4.526v5.468h-4.526v8.235c0 1.37.641 2.054 1.921 2.054M119.17 23.119c.958 0 2.099-.245 3.43-.73v5.323c-.956.422-1.866.725-2.73.904-.866.182-1.877.272-3.04.272-2.382 0-4.099-.602-5.15-1.803-1.053-1.2-1.58-3.045-1.58-5.534v-8.72h-2.485V7.36h2.486V1.878L117.248.71v6.653h4.528v5.468h-4.528v8.235c0 1.37.641 2.054 1.922 2.054M131.55 15.314c.098-1.158.427-2.007.989-2.549.565-.541 1.261-.812 2.095-.812.91 0 1.632.304 2.168.916.54.61.82 1.425.843 2.445h-6.094zm10.005-5.834c-1.687-1.662-4.079-2.494-7.174-2.494-3.253 0-5.756.956-7.511 2.867-1.754 1.91-2.63 4.652-2.63 8.224 0 3.46.947 6.128 2.84 8 1.892 1.873 4.55 2.81 7.973 2.81 1.644 0 3.058-.112 4.244-.336a12.24 12.24 0 0 0 3.425-1.202l-1.09-4.768c-.804.33-1.569.584-2.291.751-1.044.244-2.19.366-3.437.366-1.367 0-2.446-.336-3.237-1.008-.791-.673-1.213-1.6-1.261-2.783h12.68V16.66c0-3.125-.844-5.519-2.531-7.18zM32.819 15.314c.097-1.158.426-2.007.988-2.549.564-.541 1.261-.812 2.096-.812.907 0 1.63.304 2.167.916.54.61.82 1.425.844 2.445H32.82zM42.824 9.48c-1.687-1.662-4.079-2.494-7.175-2.494-3.254 0-5.756.956-7.51 2.867-1.753 1.91-2.632 4.652-2.632 8.224 0 3.46.947 6.128 2.841 8 1.892 1.873 4.55 2.81 7.973 2.81 1.644 0 3.059-.112 4.244-.336a12.259 12.259 0 0 0 3.427-1.202L42.9 22.58c-.804.33-1.57.584-2.291.751-1.046.244-2.19.366-3.437.366-1.367 0-2.447-.336-3.238-1.008-.792-.673-1.213-1.6-1.261-2.783h12.68V16.66c0-3.125-.844-5.519-2.53-7.18z"/>
    </g>
</svg>
