<svg xmlns="http://www.w3.org/2000/svg" xmlns:xlink="http://www.w3.org/1999/xlink" width="412" height="254" viewBox="0 0 412 254">
    <defs>
        <filter id="a" width="121.1%" height="135.8%" x="-10.5%" y="-17.9%" filterUnits="objectBoundingBox">
            <feOffset dx="7" dy="6" in="SourceAlpha" result="shadowOffsetOuter1"/>
            <feGaussianBlur in="shadowOffsetOuter1" result="shadowBlurOuter1" stdDeviation="7"/>
            <feColorMatrix in="shadowBlurOuter1" result="shadowMatrixOuter1" values="0 0 0 0 0 0 0 0 0 0 0 0 0 0 0 0 0 0 0.08 0"/>
            <feMerge>
                <feMergeNode in="shadowMatrixOuter1"/>
                <feMergeNode in="SourceGraphic"/>
            </feMerge>
        </filter>
        <path id="b" d="M0 0h384v226H0z"/>
    </defs>
    <g fill="none" fill-rule="evenodd" filter="url(#a)" transform="translate(7 8)">
        <mask id="c" fill="#fff">
            <use xlink:href="#b"/>
        </mask>
        <use fill="#FFF" xlink:href="#b"/>
        <g mask="url(#c)">
            <path fill="#F60" d="M137.174 127.396v-16.534l-6.992 16.534h-3.88l-6.877-16.534v16.534h-7.223V98.757h9.67l6.643 16.17 6.952-16.17h8.93v28.639h-7.223zm12.782 0V98.757h6.177c.54 0 1.082.55 1.082 1.146v27.493h-7.259zm27.3-16.493h9.182c.724 0 1.133.601 1.133 1.307v14.794c-2.582.586-6.618.945-9.618.945-10.526 0-16.077-5.09-16.077-14.91 0-8.764 5.551-14.835 14.804-14.835 4.075 0 7.649 1.102 9.95 2.676l-2.846 4.929c-1.99-.904-4.669-1.534-6.563-1.534-5.32 0-7.808 3.58-7.808 8.763 0 5.534 2.88 8.953 8.194 8.953.97 0 2.181-.036 3.148-.19v-5.045h-3.499v-5.853zm26.426-6.628h-3.554v7.18h3.554c2.12 0 3.788-1.146 3.788-3.87 0-2.761-1.668-3.31-3.788-3.31zm5.348 23.12l-3.35-7.882c-.685-1.607-1.163-2.402-2.616-2.402h-2.936v10.285h-7.096V99.903c0-.597.645-1.146 1.107-1.146h10.016c5.444 0 10.112 1.146 10.112 8.275 0 3.192-1.742 6.462-5.01 7.124 1.628.561 3.268 2.676 4.155 4.973l3.228 8.267h-7.61zm23.297-23.12c-3.808 0-6.519 2.757-6.519 8.763 0 6.091 2.71 8.84 6.519 8.84 3.267 0 5.941-2.749 5.941-8.84 0-6.006-2.674-8.763-5.941-8.763zm0 23.674c-9.244 0-14.136-6.624-14.136-14.91 0-8.215 4.891-14.835 14.136-14.835 8.66 0 13.559 6.62 13.559 14.834 0 8.287-4.9 14.91-13.56 14.91zm27.46 0c-4.776 0-9.21-1.736-11.187-3.116l3.219-5.789c1.795 1.102 5.289 2.798 8.508 2.798 1.823 0 4.127-.355 4.127-2.41 0-1.93-2.574-2.519-5.95-3.5-4.075-1.183-8.818-2.83-8.818-8.388 0-5.99 5.248-9.34 12.078-9.34 4.509 0 8.003 1.619 9.786 3.35l-3.92 4.525c-1.938-1.174-3.92-2.087-6.14-2.087-2.675 0-4.187 1.03-4.187 2.527 0 1.486 1.938 2.244 4.381 2.991 4.319 1.352 10.216 2.733 10.216 8.469 0 5.91-4.657 9.97-12.114 9.97z"/>
        </g>
    </g>
</svg>
