<svg xmlns="http://www.w3.org/2000/svg" width="120" height="56" viewBox="0 0 120 56">
    <g fill="#71788C" fill-rule="nonzero">
        <path d="M1.918 41.229h9.369v3.946h-4.27v1.378h3.9v3.755h-3.9v1.417h4.418v3.946H1.918zM25.697 41.229v8.542c0 4.215-2.55 6.13-6.45 6.13-3.899 0-6.448-1.915-6.448-6.13v-8.542h5.063v8.044c0 1.13.036 2.127 1.385 2.127s1.386-.996 1.386-2.127v-8.044h5.064zM27.285 41.229h6.117c3.141 0 5.803 1.379 5.803 5.018 0 2.184-.814 3.102-2.7 3.754v.115c.26.21 3.883 5.555 3.883 5.555h-5.84l-2.218-4.635h-.092v4.635h-4.953V41.229zm4.953 6.396h.351c.832 0 1.663-.133 1.663-1.206 0-1.11-.758-1.244-1.627-1.244h-.387v2.45zM55.537 48.488c0 4.635-3.455 7.413-7.706 7.413-4.25 0-7.706-2.778-7.706-7.413 0-4.54 3.474-7.49 7.706-7.49s7.706 2.95 7.706 7.49m-10.311.077c0 1.647 1.072 2.777 2.605 2.777s2.605-1.13 2.605-2.777c0-1.533-.997-2.817-2.605-2.817s-2.605 1.284-2.605 2.817M56.716 41.229h5.156c4.676 0 8.26 2.125 8.26 7.431 0 4.29-2.92 7.01-7.003 7.01h-6.413V41.23zm5.064 10.113h.314c1.681 0 2.975-.804 2.975-2.7 0-2.031-1.126-2.893-2.975-2.893h-.314v5.593zM71.314 41.229h6.116c3.142 0 5.803 1.379 5.803 5.018 0 2.184-.813 3.102-2.699 3.754v.115c.26.21 3.88 5.555 3.88 5.555h-5.838l-2.218-4.635h-.092v4.635h-4.952V41.229zm4.952 6.396h.352c.831 0 1.663-.133 1.663-1.206 0-1.11-.758-1.244-1.627-1.244h-.388v2.45zM85.025 41.229h5.064V55.67h-5.064zM105.815 41.229l-5.396 14.442h-4.287l-5.397-14.442h5.286l1.847 6.569c.205.71.352 1.417.352 2.146h.11c0-.729.148-1.437.351-2.146l1.849-6.57h5.285zM106.22 41.229h9.37v3.946h-4.27v1.378h3.9v3.755h-3.9v1.417h4.418v3.946h-9.517zM4.34 25.548l.713.565c2.502 1.95 5.512 3.54 8.726 3.54 1.378 0 3.571-.564 3.571-2.309 0-1.744-1.836-1.898-3.112-2.155l-2.806-.513C5.972 23.7 1.38 20.469 1.38 14.415 1.38 5.23 9.698.099 18.065.099c4.388 0 8.42 1.078 12.195 3.386l-3.775 9.903c-2.4-1.641-5.104-2.925-8.114-2.925-1.224 0-3.01.463-3.01 2.053 0 1.437 1.735 1.642 2.805 1.899l3.165.717c5.918 1.334 10.204 4.517 10.204 11.083 0 9.236-8.367 13.802-16.685 13.802-4.846 0-10.459-1.334-14.796-3.54L4.34 25.549zM33.878.715h25.869v10.57H47.96v3.694h10.767v10.057H47.96v3.797h12.196v10.57H33.878z"/>
        <path d="M73.871.715l4.822 22.342L84.28.715h10.715l5.243 22.342L105.403.715h14.543l-13.572 38.688H94.179L89.79 18.366l-5.05 21.037H72.85L59.38.715z"/>
    </g>
</svg>
